<?xml version="1.0" standalone="no"?>
<!DOCTYPE svg PUBLIC "-//W3C//DTD SVG 20010904//EN"
 "http://www.w3.org/TR/2001/REC-SVG-20010904/DTD/svg10.dtd">
<svg version="1.0" xmlns="http://www.w3.org/2000/svg"
 width="2048.000000pt" height="2048.000000pt" viewBox="0 0 2048.000000 2048.000000"
 preserveAspectRatio="xMidYMid meet">
<metadata>
Created by potrace 1.11, written by Peter Selinger 2001-2013
</metadata>
<g transform="translate(0.000000,2048.000000) scale(0.100000,-0.100000)"
fill="#000000" stroke="none">
<path d="M6270 15826 l0 -4654 513 -2 c661 -3 633 -3 1380 -1 540 2 638 5 633
16 -3 8 -1 17 5 20 5 4 6 11 2 18 -10 16 -10 58 -1 63 5 3 5 11 1 17 -10 16
-10 98 0 120 4 9 4 17 -1 17 -9 0 -8 53 3 69 3 6 3 16 -1 23 -10 16 -11 68 -1
68 5 0 5 5 2 11 -11 16 -12 69 -2 69 4 0 5 5 2 11 -11 16 -12 69 -3 75 5 3 5
10 1 17 -10 16 -10 57 0 57 4 0 5 5 1 12 -10 16 -11 68 -1 68 5 0 5 5 2 11
-11 16 -12 69 -2 69 4 0 5 5 2 11 -11 16 -12 69 -3 75 5 3 5 10 1 17 -10 16
-10 57 0 57 4 0 5 5 1 12 -10 16 -11 68 -1 68 5 0 5 5 2 11 -11 16 -12 69 -2
69 4 0 5 5 2 11 -11 16 -12 69 -3 75 5 3 5 10 1 17 -10 16 -10 57 0 57 4 0 5
5 1 12 -10 16 -11 68 -1 68 5 0 5 5 2 11 -11 16 -12 69 -2 69 4 0 5 5 2 11
-11 16 -12 69 -3 75 5 3 5 10 1 17 -10 16 -10 57 0 57 4 0 5 5 1 12 -10 16
-11 68 -1 68 4 0 4 8 0 18 -10 21 -10 53 0 69 4 6 4 14 -1 17 -9 5 -9 47 1 63
4 7 4 14 -1 17 -9 5 -8 109 2 125 4 6 3 11 -1 11 -10 0 -9 53 2 69 3 6 3 16
-1 23 -10 16 -11 68 -1 68 4 0 4 8 0 18 -10 21 -10 53 0 69 4 6 4 14 -1 17 -9
5 -9 47 1 63 4 7 4 14 -1 17 -9 5 -8 109 2 125 4 6 3 11 -1 11 -10 0 -9 53 2
69 3 6 3 16 -1 23 -10 16 -11 68 -1 68 5 0 5 5 2 11 -11 16 -12 69 -3 75 5 3
5 10 1 17 -10 16 -10 58 -1 63 5 3 5 10 1 17 -10 16 -10 57 0 57 4 0 5 5 1 12
-10 16 -11 68 -1 68 4 0 4 8 0 18 -10 21 -10 53 0 69 4 6 4 14 -1 17 -9 5 -9
47 1 63 4 7 4 14 -1 17 -9 5 -8 109 2 125 4 6 3 11 -1 11 -10 0 -9 53 2 69 3
6 3 16 -1 23 -10 16 -11 68 -1 68 4 0 4 8 0 18 -10 21 -10 53 0 69 4 6 4 14
-1 17 -9 5 -9 47 1 63 4 7 4 14 -1 17 -9 5 -8 109 2 125 4 6 3 11 -1 11 -10 0
-9 53 2 69 3 6 3 16 -1 23 -10 16 -11 68 -1 68 5 0 5 5 2 11 -11 16 -12 69 -3
75 5 3 5 10 1 17 -10 16 -10 58 -1 63 5 3 5 10 1 17 -10 16 -10 57 0 57 4 0 5
5 1 12 -10 16 -11 68 -1 68 5 0 5 5 2 11 -11 16 -12 69 -2 69 4 0 5 5 2 11
-11 16 -12 69 -3 75 5 3 5 10 1 17 -8 14 -10 108 -2 113 4 2 17 -11 30 -28 13
-18 31 -39 39 -48 8 -8 26 -31 40 -50 13 -19 27 -37 30 -40 4 -4 111 -136 133
-165 4 -5 15 -20 25 -31 59 -74 81 -101 167 -209 53 -66 101 -127 108 -135 7
-8 39 -49 72 -90 33 -41 74 -93 93 -115 18 -22 36 -44 40 -50 4 -5 28 -35 52
-66 25 -31 59 -73 75 -94 17 -22 44 -55 60 -75 31 -38 70 -88 102 -128 10 -13
28 -34 41 -47 12 -13 22 -26 22 -29 0 -6 9 -18 58 -74 12 -15 26 -31 30 -37
28 -35 297 -374 311 -390 9 -12 35 -43 57 -71 21 -27 45 -56 52 -64 7 -8 43
-53 79 -100 37 -47 71 -89 75 -95 5 -5 18 -21 29 -35 11 -14 30 -38 42 -53 12
-15 30 -38 41 -50 10 -12 30 -38 45 -57 14 -19 28 -37 31 -40 3 -3 68 -84 145
-180 76 -96 145 -182 152 -190 8 -8 54 -67 104 -130 50 -63 103 -129 117 -146
15 -17 32 -38 37 -46 20 -31 250 -313 257 -316 5 -2 8 -10 8 -18 0 -8 4 -14 8
-14 5 0 23 -19 40 -42 17 -24 42 -56 56 -73 30 -35 30 -36 76 -95 19 -24 45
-56 56 -70 12 -14 63 -77 113 -140 50 -63 97 -122 104 -130 7 -8 39 -49 72
-90 33 -41 64 -80 70 -87 5 -6 21 -26 35 -44 14 -18 33 -41 43 -51 9 -10 17
-22 17 -27 0 -5 3 -11 8 -13 7 -3 32 -33 87 -104 17 -21 38 -46 48 -56 9 -10
17 -22 17 -27 0 -6 143 -11 358 -12 491 -2 560 -2 1110 0 l482 3 0 4654 0
4654 -1230 0 -1231 0 1 -52 c0 -29 0 -62 -1 -73 0 -11 0 -78 0 -150 0 -71 0
-137 0 -145 0 -77 0 -468 0 -480 0 -13 0 -144 0 -190 0 -21 0 -302 0 -320 0
-13 0 -250 0 -290 0 -77 0 -468 0 -480 0 -12 0 -96 0 -190 0 -8 0 -73 0 -145
0 -71 0 -137 0 -145 0 -102 0 -469 0 -480 1 -12 0 -99 0 -160 0 -8 0 -116 0
-240 0 -124 0 -232 0 -240 -1 -118 0 -819 0 -830 2 -34 0 -105 -3 -108 -3 -2
-99 116 -176 218 -14 18 -29 38 -35 44 -5 6 -32 40 -60 76 -27 36 -52 67 -55
70 -3 3 -17 21 -30 40 -13 19 -27 37 -30 40 -3 3 -28 34 -55 70 -28 36 -54 70
-60 76 -5 6 -21 26 -35 44 -14 19 -36 47 -50 64 -14 17 -28 36 -32 41 -5 6
-23 28 -40 51 -18 22 -44 56 -58 74 -14 18 -54 70 -90 115 -36 45 -76 97 -90
115 -14 18 -44 57 -67 86 -24 29 -43 58 -43 64 0 6 -4 8 -10 5 -6 -3 -10 1
-10 9 0 9 -4 16 -8 16 -4 0 -15 12 -25 28 -9 15 -29 41 -44 58 -15 18 -35 42
-43 54 -8 12 -20 28 -26 34 -5 6 -41 52 -79 101 -38 50 -74 95 -80 102 -14 17
-18 22 -120 153 -49 63 -94 120 -100 126 -5 7 -19 24 -30 40 -11 15 -28 36
-37 46 -10 10 -18 21 -18 26 0 4 -16 24 -35 44 -19 20 -35 39 -35 42 0 6 -19
30 -124 160 -17 21 -35 46 -40 55 -6 9 -20 27 -33 41 -13 14 -33 40 -44 58
-11 17 -25 32 -30 32 -5 0 -9 4 -9 10 0 5 -9 20 -19 32 -16 19 -87 109 -239
303 -4 6 -30 39 -57 75 -28 36 -56 69 -62 73 -7 4 -13 14 -13 22 0 7 -4 15 -8
17 -6 2 -73 83 -110 133 -4 6 -28 37 -54 70 -26 33 -70 89 -98 125 -28 36 -56
72 -63 80 -7 8 -50 65 -97 125 -46 61 -87 112 -90 115 -3 3 -36 46 -74 95 -38
50 -75 95 -83 101 -7 6 -13 16 -13 22 0 6 -3 12 -7 14 -5 2 -28 30 -53 63 -25
32 -52 66 -60 75 -8 9 -55 69 -105 134 -49 65 -97 126 -105 136 -8 9 -26 32
-40 50 -27 35 -151 193 -175 223 -8 9 -15 20 -15 23 0 3 -13 19 -30 37 -16 18
-30 35 -30 40 0 4 -445 7 -990 7 l-990 0 0 -4654z"/>
<path d="M10949 9346 c-2 -2 -137 -7 -299 -10 -162 -3 -308 -8 -325 -11 -16
-2 -66 -7 -109 -10 -44 -3 -82 -8 -85 -10 -4 -2 -38 -6 -76 -10 -39 -4 -79 -9
-90 -12 -11 -2 -42 -8 -70 -13 -27 -5 -75 -14 -105 -19 -30 -6 -68 -13 -83
-15 -16 -3 -43 -10 -60 -15 -18 -6 -43 -12 -57 -15 -42 -8 -63 -13 -110 -27
-25 -7 -49 -13 -55 -15 -5 -1 -44 -12 -85 -25 -41 -13 -78 -22 -82 -21 -5 1
-8 -3 -8 -9 0 -5 -4 -8 -8 -5 -5 3 -44 -8 -88 -25 -43 -17 -86 -32 -94 -34 -8
-2 -16 -4 -17 -5 -2 -2 -6 -3 -10 -4 -5 -1 -25 -10 -47 -19 -21 -9 -40 -17
-43 -17 -2 0 -29 -11 -59 -25 -30 -14 -57 -25 -59 -25 -7 0 -275 -134 -320
-160 -22 -13 -65 -36 -95 -53 -30 -16 -63 -37 -72 -45 -10 -8 -18 -12 -18 -8
0 4 -9 -1 -19 -11 -11 -10 -37 -27 -58 -38 -21 -11 -40 -22 -43 -25 -3 -3 -48
-34 -100 -69 -97 -66 -304 -221 -351 -263 -15 -13 -43 -36 -63 -52 -87 -69
-349 -325 -456 -447 -30 -34 -66 -75 -80 -90 -14 -16 -34 -40 -45 -55 -11 -14
-30 -38 -42 -52 -58 -69 -203 -270 -203 -281 0 -6 -4 -11 -10 -11 -5 0 -10 -7
-10 -15 0 -8 -4 -15 -8 -15 -5 0 -14 -10 -21 -22 -15 -28 -22 -40 -93 -155
-32 -51 -58 -97 -58 -102 0 -5 -6 -16 -13 -23 -13 -13 -142 -270 -195 -388
-16 -36 -50 -121 -76 -190 -26 -69 -50 -132 -53 -140 -3 -8 -7 -21 -9 -27 -1
-7 -12 -43 -24 -80 -12 -38 -23 -72 -24 -78 -2 -5 -10 -33 -19 -62 -16 -55
-83 -337 -90 -388 -3 -16 -10 -59 -16 -95 -12 -75 -20 -127 -26 -188 -3 -24
-7 -59 -10 -79 -20 -154 -27 -644 -12 -808 4 -44 9 -102 11 -130 2 -27 7 -63
9 -80 3 -16 9 -57 12 -90 4 -33 9 -69 11 -80 2 -11 6 -36 9 -55 4 -19 8 -46
11 -60 3 -14 7 -43 10 -64 3 -22 10 -48 15 -59 6 -10 9 -24 6 -30 -2 -7 0 -23
6 -37 5 -14 11 -32 12 -40 5 -32 19 -90 50 -205 41 -150 151 -456 220 -610 7
-16 26 -57 40 -90 54 -120 119 -250 133 -267 8 -10 12 -18 8 -18 -4 0 1 -12
11 -27 11 -16 24 -39 31 -53 6 -14 16 -32 21 -40 5 -8 33 -55 63 -105 29 -49
56 -91 61 -93 4 -2 7 -8 7 -13 0 -9 127 -201 157 -239 7 -8 35 -46 63 -85 28
-38 55 -72 59 -75 4 -3 18 -21 31 -40 13 -19 27 -37 30 -40 3 -3 28 -32 55
-65 108 -129 358 -385 484 -495 35 -30 68 -60 75 -65 17 -16 118 -96 156 -125
18 -14 42 -33 54 -43 11 -10 33 -26 49 -35 15 -9 27 -20 27 -24 0 -4 5 -8 11
-8 6 0 32 -16 57 -36 62 -47 211 -144 223 -144 5 0 9 -4 9 -10 0 -5 4 -10 9
-10 8 0 50 -23 134 -74 112 -67 462 -235 589 -282 61 -22 300 -105 318 -109 8
-2 31 -9 50 -15 19 -6 49 -14 65 -17 39 -7 47 -9 65 -16 20 -7 99 -26 130 -31
14 -3 25 -5 25 -6 0 -1 9 -3 20 -4 17 -2 57 -10 115 -22 19 -5 84 -14 135 -19
22 -3 49 -7 61 -9 176 -35 700 -47 984 -22 75 7 174 17 210 21 14 2 50 6 80
10 30 3 96 13 145 21 50 9 101 17 115 19 14 2 25 4 25 5 0 2 18 6 65 14 19 3
73 15 120 26 47 11 96 23 110 26 14 3 58 14 99 25 41 12 84 23 97 25 13 2 36
9 51 15 16 6 35 12 44 14 9 2 39 11 65 20 27 9 54 18 59 19 18 4 90 28 100 35
6 3 15 6 22 7 14 2 165 59 208 78 17 8 41 19 55 24 31 13 139 62 205 93 28 12
53 28 57 33 4 6 8 7 8 2 0 -4 10 -2 23 6 12 8 63 37 112 63 50 27 107 59 127
72 21 13 40 23 43 23 3 0 11 5 18 10 7 6 67 46 133 90 109 71 242 170 363 270
130 107 331 310 416 419 11 14 23 31 27 36 5 6 22 28 38 50 16 22 34 45 39 51
29 35 31 62 31 354 0 277 -1 301 -17 307 -10 4 -37 19 -60 35 -23 15 -46 28
-52 28 -6 0 -11 5 -11 10 0 6 -7 10 -15 10 -8 0 -15 5 -15 11 0 5 -4 7 -10 4
-5 -3 -10 -3 -10 2 0 4 -10 13 -23 19 -50 24 -122 68 -125 76 -2 4 -8 8 -12 8
-5 0 -107 59 -226 130 -119 72 -220 130 -225 130 -5 0 -9 5 -9 10 0 6 -4 10
-10 10 -5 0 -49 24 -97 54 -93 56 -227 136 -280 167 -17 10 -50 29 -72 43 -22
15 -45 26 -51 26 -5 0 -10 5 -10 10 0 6 -6 10 -14 10 -8 0 -21 6 -28 14 -8 7
-32 23 -54 35 -21 11 -56 31 -76 43 -132 81 -162 98 -169 98 -5 0 -9 4 -9 8 0
4 -12 13 -27 20 -16 6 -47 23 -70 37 l-43 25 -14 -33 c-7 -19 -17 -44 -21 -57
-28 -87 -162 -316 -225 -383 -17 -18 -30 -35 -30 -39 0 -30 -333 -308 -369
-308 -6 0 -11 -4 -11 -10 0 -5 -6 -10 -14 -10 -8 0 -16 -3 -18 -7 -5 -12 -173
-97 -248 -127 -83 -32 -208 -73 -268 -87 -125 -29 -158 -35 -227 -45 -22 -3
-51 -7 -65 -10 -131 -23 -556 -22 -623 1 -7 2 -30 7 -52 9 -47 6 -231 50 -266
65 -41 16 -63 24 -81 27 -9 2 -33 13 -52 24 -20 11 -36 18 -36 15 0 -7 -143
66 -162 83 -10 8 -18 12 -18 8 0 -9 -161 96 -250 163 -64 48 -278 253 -319
306 -70 89 -171 231 -171 241 0 3 -13 24 -28 47 -16 23 -41 69 -58 102 -16 33
-32 62 -36 63 -5 2 -8 8 -8 14 0 5 -10 31 -23 57 -13 25 -24 48 -24 51 0 3 -8
23 -17 45 -40 95 -126 379 -140 461 -3 16 -8 45 -12 64 -3 19 -7 42 -9 50 -1
8 -5 31 -9 50 -13 66 -24 182 -30 322 -2 54 -7 102 -11 108 -3 5 -3 10 2 10 4
0 8 46 9 103 1 115 15 292 30 377 11 63 16 95 19 120 1 14 3 25 5 25 1 0 4 14
6 30 8 45 12 70 14 70 1 0 3 7 5 15 17 81 50 193 93 320 15 41 27 77 27 80 1
14 120 254 158 320 40 69 131 205 166 246 14 17 40 48 56 68 113 140 323 317
495 415 94 55 263 132 340 156 20 6 96 29 103 31 4 1 8 2 10 4 1 1 9 3 17 5 8
1 42 8 75 15 68 15 73 16 135 24 94 13 139 16 280 16 208 0 270 -3 270 -12 0
-4 11 -3 24 2 13 5 27 6 30 3 3 -3 20 -7 38 -8 46 -3 130 -15 148 -20 8 -3 29
-7 45 -9 159 -22 400 -102 570 -189 72 -37 233 -136 261 -162 7 -5 31 -26 55
-45 45 -35 206 -194 246 -242 33 -41 118 -168 144 -218 13 -25 27 -46 32 -48
4 -2 7 -12 7 -23 0 -10 3 -19 8 -19 4 0 20 -34 36 -75 l28 -74 47 31 c25 18
71 50 102 73 31 22 66 47 79 55 20 14 48 36 77 60 7 5 16 10 20 10 5 0 20 11
35 25 15 14 31 25 36 25 4 0 17 8 28 18 10 10 42 33 69 52 28 18 52 36 55 39
3 4 41 31 85 61 44 30 85 59 92 65 36 30 43 35 53 35 5 0 10 3 10 8 0 4 8 12
19 17 20 11 154 106 184 130 9 8 20 15 23 15 3 0 25 16 48 35 24 19 48 35 54
35 6 0 12 4 14 8 2 4 50 42 108 82 58 41 106 78 108 82 2 5 8 8 13 8 6 0 15 5
22 11 13 12 176 128 310 220 l87 61 0 189 0 189 -33 49 c-18 26 -39 54 -45 62
-7 8 -38 50 -70 94 -54 74 -158 200 -207 251 -11 11 -41 43 -66 70 -103 109
-266 256 -394 353 -44 33 -84 64 -90 69 -21 17 -163 111 -245 162 -84 52 -378
205 -475 247 -235 102 -602 229 -712 246 -10 1 -22 5 -28 9 -5 3 -26 9 -45 12
-19 3 -50 10 -68 15 -18 5 -35 10 -37 10 -3 0 -20 3 -38 6 -17 3 -41 8 -52 10
-11 2 -20 4 -20 5 0 1 -16 3 -35 6 -38 4 -74 10 -105 17 -11 3 -45 8 -75 12
-30 4 -68 9 -85 11 -16 2 -57 6 -90 10 -33 3 -76 7 -95 9 -19 2 -100 6 -180
10 -80 4 -148 8 -151 11 -3 2 -8 2 -10 0z"/>
</g>
</svg>
